# xmcd
#
# Track frame offsets: 
#        150
#        15284
#        30889
#        48086
#        70436
#        83077
#        104712
#        121119
#        135654
#        151729
#        167778
#        184773
#        197917
#        216943
#        231034
#        245217
#        262446
#        281926
#
# Disc length: 3933 seconds
#
# Revision: 1
# Processed by: cddbd v1.5.2PL0 Copyright (c) Steve Scherf et al.
# Submitted via: ExactAudioCopy v1.3
#
DISCID=030f5b12
DTITLE=Grands Corps Malade - Enfant de la ville
DYEAR=2008
DGENRE=Hip-Hop
TTITLE0=Mental
TTITLE1=Je viens de là
TTITLE2=Comme une évidence
TTITLE3=4 saisons
TTITLE4=Pères et mères
TTITLE5=A la recherche
TTITLE6=Le Blues de l'instituteur
TTITLE7=Rétroviseur
TTITLE8=J'écris à l'oral
TTITLE9=Enfant de la ville
TTITLE10=La nuit
TTITLE11=J'ai pas les mots
TTITLE12=Avec Eux
TTITLE13=Underground
TTITLE14=L'appartement
TTITLE15=Du côté chance
TTITLE16=Changer le temps
TTITLE17=En vers et contre tout
EXTD=YEAR: 2008
EXTT0=
EXTT1=
EXTT2=
EXTT3=
EXTT4=
EXTT5=
EXTT6=
EXTT7=
EXTT8=
EXTT9=
EXTT10=
EXTT11=
EXTT12=
EXTT13=
EXTT14=
EXTT15=
EXTT16=
EXTT17=
PLAYORDER=
